{"title":"Robbie Williams Live at Knebworth 2003 H.264 576p","uid":5835057,"size":2389870932,"categoryP":"video","categoryS":"music_videos","magnet":"?xt=urn:btih:a48ce6c78bb2e9de8af1e6816d0662eab3005340&amp;dn=Robbie+Williams+Live+at+Knebworth+2003+H.264+576p&amp;tr=udp%3A%2F%2Ftracker.openbittorrent.com%3A80&amp;tr=udp%3A%2F%2Fopen.demonii.com%3A1337&amp;tr=udp%3A%2F%2Ftracker.coppersurfer.tk%3A6969&amp;tr=udp%3A%2F%2Fexodus.desync.com%3A6969","seeders":0,"leechers":0,"uploader":"2toromek","files":1,"time":1284697718,"description":"\n\nTrack List:\n\nLet Me Entertain You\nLet Love Be Your Energy\nWe Will Rock You\nMonsoon\nCome Undone\nStrong\nMe and My Monkey\nHot Fuge\nMr Bojangles\nShe's The One\nSuperme\nNo Regrets\nKids\nBetter Man\nMan's Song\nFeel\nRock DJ\nAngels\n\n\nTotal time: 1.55:13\n\n\nFormat/Info                      : Advanced Video Codec\nFormat profile                   : &lt;a class=&quot;__cf_email__&quot; href=&quot;/cdn-cgi/l/email-protection&quot; data-cfemail=&quot;6e260709062e225d405e&quot;&gt;[email&amp;#160;protected]&lt;/a&gt;&lt;script data-cfhash='f9e31' type=&quot;text/javascript&quot;&gt;\n/* &lt;![CDATA[ */!function(){try{var t=&quot;currentScript&quot;in document?document.currentScript:function(){for(var t=document.getElementsByTagName(&quot;script&quot;),e=t.length;e--;)if(t[e].getAttribute(&quot;data-cfhash&quot;))return t[e]}();if(t&amp;&amp;t.previousSibling){var e,r,n,i,c=t.previousSibling,a=c.getAttribute(&quot;data-cfemail&quot;);if(a){for(e=&quot;&quot;,r=parseInt(a.substr(0,2),16),n=2;a.length-n;n+=2)i=parseInt(a.substr(n,2),16)^r,e+=String.fromCharCode(i);e=document.createTextNode(e),c.parentNode.replaceChild(e,c)}t.parentNode.removeChild(t);}}catch(u){}}()/* ]]&gt; */&lt;/script&gt;\nFormat settings, CABAC           : Yes\nFormat settings, ReFrames        : 4 frames\nCodec ID                         : H264\nDuration                         : 1h 55mn\nBit rate                         : 2 500 Kbps\nWidth                            : 720 pixels\nHeight                           : 576 pixels\nDisplay aspect ratio             : 16:9\nFrame rate mode                  : Variable\nFrame rate                       : 25.000 fps\nStandard                         : PAL\nColor space                      : YUV\nChroma subsampling               : 4:2:0\nBit depth                        : 8 bits\nScan type                        : Progressive\nBits/(Pixel*Frame)               : 0.241\nStream size                      : 2.01 GiB (90%)\nWriting library                  : x264 core 93 r1542 5b86182\n\nAudio\nID                               : 1\nFormat                           : AC-3\nFormat/Info                      : Audio Coding 3\nMode extension                   : CM (complete main)\nCodec ID                         : 2000\nDuration                         : 1h 55mn\nBit rate mode                    : Constant\nBit rate                         : 256 Kbps\nChannel(s)                       : 2 channels\nChannel positions                : Front: L R\nSampling rate                    : 48.0 KHz\nBit depth                        : 16 bits\nStream size                      : 211 MiB (9%)\nAlignment                        : Aligned on interleaves\nInterleave, duration             : 40 ms (1.00 video frame)\n","torrent":{"xt":"urn:btih:a48ce6c78bb2e9de8af1e6816d0662eab3005340","amp;dn":"Robbie+Williams+Live+at+Knebworth+2003+H.264+576p","amp;tr":["udp%3A%2F%2Ftracker.openbittorrent.com%3A80","udp%3A%2F%2Fopen.demonii.com%3A1337","udp%3A%2F%2Ftracker.coppersurfer.tk%3A6969","udp%3A%2F%2Fexodus.desync.com%3A6969"],"infoHash":"a48ce6c78bb2e9de8af1e6816d0662eab3005340","infoHashBuffer":{"type":"Buffer","data":[164,140,230,199,139,178,233,222,138,241,230,129,109,6,98,234,179,0,83,64]},"announce":[],"urlList":[]}}